/* XPM */
static char *a66e2764c50f4058bb2dfd435edabfafdZ3gRz0Mv8A7TuUv[] = {
/* columns rows colors chars-per-pixel */
"100 75 239 2 ",
"   c #184A4D",
".  c #1B4D52",
"X  c #134E52",
"o  c #155454",
"O  c #1C5355",
"+  c #15555A",
"@  c #1C555B",
"#  c #1D5B5C",
"$  c #175A5A",
"%  c #11504D",
"&  c #264E54",
"*  c #235355",
"=  c #24555B",
"-  c #2C545B",
";  c #235B5D",
":  c #2B5B5D",
">  c #295555",
",  c #345C5C",
"<  c #34595A",
"1  c #274C4E",
"2  c #1D605E",
"3  c #28625D",
"4  c #34625E",
"5  c #1D5C61",
"6  c #195962",
"7  c #235D62",
"8  c #2B5D62",
"9  c #265A67",
"0  c #335D63",
"q  c #395E63",
"w  c #1D6263",
"e  c #1C6567",
"r  c #246364",
"t  c #2B6464",
"y  c #246966",
"u  c #2C6966",
"i  c #24646A",
"p  c #2B656A",
"a  c #256A6B",
"s  c #2C6B6C",
"d  c #336365",
"f  c #3A6465",
"g  c #336965",
"h  c #3B6965",
"j  c #33656A",
"k  c #3B666B",
"l  c #336C6C",
"z  c #3B6C6C",
"x  c #2D716E",
"c  c #26706F",
"v  c #34716D",
"b  c #3C726D",
"n  c #2C6D71",
"m  c #296972",
"M  c #346D72",
"N  c #3B6D72",
"B  c #3A6C79",
"V  c #356875",
"C  c #2D7273",
"Z  c #2B747A",
"A  c #347373",
"S  c #3B7374",
"D  c #3C7A76",
"F  c #35747A",
"G  c #3B757A",
"H  c #357A7A",
"J  c #3B7B7C",
"K  c #357975",
"L  c #426C6C",
"P  c #456A68",
"I  c #43726D",
"U  c #4A716D",
"Y  c #426D72",
"T  c #4A6E74",
"R  c #437473",
"E  c #4A7574",
"W  c #437A75",
"Q  c #43757A",
"!  c #4B767A",
"~  c #437C7C",
"^  c #4B7C7C",
"/  c #4B7A76",
"(  c #527D7B",
")  c #527877",
"_  c #3C817E",
"`  c #35807C",
"'  c #44817D",
"]  c #4C827D",
"[  c #4D8177",
"{  c #53827E",
"}  c #5D817B",
"|  c #618B7F",
" . c #3C7D82",
".. c #397A82",
"X. c #447D82",
"o. c #4B7E82",
"O. c #437886",
"+. c #547D82",
"@. c #4B7E94",
"#. c #3D8383",
"$. c #3D8587",
"%. c #3D8691",
"&. c #448383",
"*. c #4B8384",
"=. c #448A85",
"-. c #4C8A85",
";. c #448589",
":. c #4C858A",
">. c #458A8B",
",. c #4B8B8B",
"<. c #538484",
"1. c #5B8584",
"2. c #538985",
"3. c #5A8B85",
"4. c #52868A",
"5. c #538B8C",
"6. c #5B8B8C",
"7. c #5A848C",
"8. c #4C918D",
"9. c #47928D",
"0. c #54928D",
"q. c #5B928D",
"w. c #4C8D92",
"e. c #498893",
"r. c #538D92",
"t. c #5C8D92",
"y. c #578A96",
"u. c #4C9293",
"i. c #4C9398",
"p. c #539394",
"a. c #5B9494",
"s. c #5B9A95",
"d. c #549599",
"f. c #5C959A",
"g. c #559B9A",
"h. c #5C9B9B",
"j. c #559995",
"k. c #628D8B",
"l. c #648A88",
"z. c #62938E",
"x. c #69948C",
"c. c #638D93",
"v. c #639494",
"b. c #649A95",
"n. c #62959A",
"m. c #649C9C",
"M. c #6B9B9C",
"N. c #6B9796",
"B. c #729B9A",
"V. c #719B8D",
"C. c #5CA09D",
"Z. c #69A29D",
"A. c #74A29D",
"S. c #7DA49F",
"D. c #5B9CA1",
"F. c #579AA7",
"G. c #639DA1",
"H. c #6C9DA1",
"J. c #6297A3",
"K. c #729CA2",
"L. c #5CA3A3",
"P. c #5DA7AC",
"I. c #64A3A3",
"U. c #6BA3A4",
"Y. c #64AAA6",
"T. c #6CAAA5",
"R. c #6BA5AA",
"E. c #64ABAC",
"W. c #6CABAB",
"Q. c #64A6A9",
"!. c #73A3A3",
"~. c #74AAA5",
"^. c #73ACAB",
"/. c #7BACAA",
"(. c #79A7A7",
"). c #6BB2AE",
"_. c #74B1AD",
"`. c #7CB2AD",
"'. c #7CB1A5",
"]. c #6CADB2",
"[. c #73AEB2",
"{. c #7BADB1",
"}. c #6EB4B2",
"|. c #6AB6B7",
" X c #73B2B3",
".X c #7AB4B4",
"XX c #7CBBBB",
"oX c #78B8B8",
"OX c #7DC2BD",
"+X c #7CBDC2",
"@X c #70B0C1",
"#X c #7CC3C5",
"$X c #7FCCD6",
"%X c #83ABA9",
"&X c #83B3AD",
"*X c #89B4AD",
"=X c #82B3B3",
"-X c #83BBBC",
";X c #8BBCBB",
":X c #88B7B6",
">X c #94BDB9",
",X c #88AFB4",
"<X c #80AC9F",
"1X c #88C2BD",
"2X c #94C2BD",
"3X c #84BEC2",
"4X c #90BEC9",
"5X c #83C3C3",
"6X c #8BC4C3",
"7X c #8BCBCB",
"8X c #88C9C8",
"9X c #93CDCD",
"0X c #98C8C6",
"qX c #98D1CB",
"wX c #8CCDD2",
"eX c #96CDD2",
"rX c #93D3D3",
"tX c #99D7D7",
"yX c #8BD3D2",
"uX c #A2CCC8",
"iX c #A6D4CE",
"pX c #A7DAD8",
"aX c #B3DAD7",
"sX c #ABE0DB",
"dX c #B8E3DC",
"fX c #91DDE2",
"gX c #ACDEE1",
"hX c #9EE4E4",
"jX c #A9E7E7",
"kX c #B8E9E7",
"lX c #ADF3F2",
"zX c #BCF6F7",
"xX c #B2F0EF",
"cX c #9DE1DF",
"vX c #C7FCFA",
"bX c #D7FCFB",
"nX c #C5EFEA",
"mX c #E2FFFF",
"MX c #C0E0DD",
/* pixels */
"1 1 4 3 4 * = 9 9 o.o.a.b 2.d : V :.G ~ S M # r tX9Xs.K 5 i 6 I.W.o *.a.M M F H $.$.u.H J ;.#.y m u.g.C a a s # s I.s -.d.].#XE.$XZ Z fXE.a a K oXK p t r t A l s G a.J v s ,.-XjX6X2.^ 2.7.M.kXbXmXuX(.",
"& - > d ~ o.9 9 9 j Q f.p.n.^ 8 9 p O r W.:.6 5XjXZ.' r i + n r.r u m.:.p G ,.u.E.H u.>.A J >.a C u.g.Z y a F  .^.~ 7 h.s i +XlXfXc m @X#Xa i s  XJ 7 t A G G s u &.p.a.U.XXgX7Xf.G S ! d j t `.uXiXA.P ",
"< q = B O.m @.9 7 j S S &.*.*.4.j p 8 @ p r.+X8X~ v l l 7 n ;.s u X.~ t V :.>...g.;.w. .F J h.}.E.L.>.#.#.H F  Xr.@ J X.5 a C #XfX%.6 i.tXD.5 s  Xm.,.~ l A t r l .X8X7XjX7X.XA l S S l z d <.6.j ^ k.h ",
"- 0 9 9 F.@.O.4.4.l S p @ t v.6Xn.G t p 4.J.:.p l l # # V 3Xf.6 -.R.G 7 M s i i n #.#.d.,.p.tXD.C r a w w w F J M # p.p 5 i a e n m i ..+XtX,.p.&.p.J t s t ~ Q.9X5X,.:.:.,.A S p G z S 8 z a.j R L 1.R ",
"0 k @.e.4X@X@.R.5.8 = r M t.*.d O.tXm.n.jXD. .o.T.6Xp.:.:.p G 5XW.rXo.; p p m m m e n [.tX3XeX+Xw.i 5 a a a s u J r.X.# 6 s i n i i F m  .h.p.j.K J G r p ; 9XzX Xt r A ~ &.S l S M S t *.m.! z ^ R ^ R ",
"q 7.J.:.O. .R.r.t.S 8 G M l 8 N j :.5.4.o.V :.r.jXXXU.,.G :.eXtXJ 5X:.p p 9 i a m ;.Q.G @ p  .M X.h.X.F F H H J 8XzXK 7 i # 5 r m i p F F C H H ;.;.:.G :..XjXtXI.&.A A ~ :.M l l l S g M.6.d j ^ t.o.S ",
"Y ! 7.Q p p f.n.eX{.Q *.M t N N G 9 N t . p 7 f.G.; # s p G.XX9 n +X;.n M V m n n D.X.+ i @ i  .p :.5X&.n s r ;.I.p.oXJ # 7 7 p 7 F V F F A s K h.5XrXrXjXvXrX XoXXXm.~ &.G t t j S ~ f.*.g N Q 2.7.^ N ",
"^ / ^ 3 * 5.n.6Xt.G.8 V Q t Q o.V V V : 9 9 p wX:.O t = @ :.G r A 8X:.V B M i m C w.d.@ @ 7 + p r.I.A G n y r ;.h.H &.h.:.r p @ 9 7 p r X.,.j. XQ.p.&.p.h.h.3X5Xh.a.W.9X5.J G ~ ^.;X-X*.l S z ^ v.^ Q Q ",
"1.( h ^ 2.m.n.6.Q o.j B B S 4.N p V p 7 9 j V 7X~ = 7 7 5 :.V 7 i #XR.9 p i F J $.].G 6 7 6 9 6 R.U.X # J F r C D. .r X.R.&.:.R.^.W.XXeXxXjXxX-.r r t l A r *. XR.U.-XjX3XXX-XpX^.n.R 2.*.S z <.a.o.Q S ",
"7.6.L 6.4.Q Q S Q 4.8 N N Y Q p j M p 7 p V V .Xm.; 7 7 5 p y.i i D.8Xn n V A >.#Xw.6 6 9 @ @ p 5Xh.@ 7 A K i s d.;.h.8XtXI.U.3XXX7X-XW.j.h. Xp.r r s l H ~ r.A ,.0.I.Z.J :.G.a.t : : ~ f.2.G ! :.4.5.G ",
"N.t.n.t.V 7 B B B o.<.^ - z j 8 p V p 7 p V V r.xX~ O 7 6 7 :.i i  . XG n n s J L.n 5 9 @ 6 i i wXI.+ 5 n J + d.}.].Q.}.7Xh.&.M p u s M l 7 r G.p.r r p A W.~ l l G ,.U.l S 5.l t 8 j z f.U.*.*.o.4.5.~ ",
"N 7.7.k = B V V B Q qXz R N V V p V s 7 9 V V ..pX~ 7 @ @ 7 X.5 m F  .V V F  .F g.a + 6 5 7 i C rXW.o 5 p G G.oXD.u.C H p.# 7 9 s H :.A p 7 r r f.I.M G h.oXA A G G G ^.S ~ a.t d t j j *.m.<.~ ~ *.:.~ ",
"9 - c.- k f.O.9 B =X!.{ kXR 9 V V F M 7 7 p V G eXM # p 9 F F + Z Z V 7 p n F n u.#.w i i 5 + >.lXu.o r X A +X,.H i w d.Q.5 r # u K h.s r r @ r s 5XU.&.p.h.,.A l s s U.~ 5.4.: t t d z ! 6.a.G S <.*.S ",
"Y ! H.7.o.o.B o.X.t.^ aXkXS G ;...G G p 7 9 p G I.t r i m D.n A w. .n F G V 5 w C g.w i a n #.Q.Q.u.;.H d.I.# + + w a g.L.i s s y F -.J # # s # O f.R.G v s.p.A s A s :.^.6.*.t j t d j ! *.T.] ^ *.R S ",
"iX/.^ ! ^ j _.2.t *.4.0X(.= :.^.J G G s 9 9 9 e.f.o ; 7 D.w.5 C F i.r.e.s 5 # #.h.8Xg.d.d.d.u.#.C #.>.].].r 5 w r n C >.d.A u H >.=.J &.J A s G a.I.a.a.U..Xp.s s A J ~ f.eX*.: 8 t t d ~ ! ^.5.a.] z R ",
"A.z.( k d h Z.3 D ~ y.J.B p &.5.G F A s 7 p p R.r.r @ V D.e m n $.].8X;.n  .w.Q.Y.7XtXE.H #.C c ` #.cX5X# r n y C s C F C H H #.J #.F h.XX^.-XrX,.M ~ Z.U..X9Xs.s S D S l .XpXg *.a.*.<.<.*..Xb.n.<.S ^ ",
"R R E Y R ^ t t a.G.O.y.O.V p G J G X.M G V r.o.7 s F [...m %.$.u. X7XI.:. .H #.$.g.L.>.g.L.$.L.rXOX).oXH ; C x x s u s C H H y 2 s W.W.J l t ~ K A ' -.s l :.6X9X] t b j z sXb.q.`.a.~.:XqX2X(.:X<.R R ",
"d z R z z ^ j Q =Xm.@ :.:.V n ;.R.{.y.M G R.X.; s *.I.p.i.F.$X#X#XtXh.s i 5 5 $ w ..C a Z C >.lXOXv 9.j.,.A u s s s s s H H H ,.g.8X8XK r # s s ~ A r s A l S S ;XpX2.> t 3 5.~.=X`.q.`.kXvXaX0XnX/ ^ z ",
"f d ! N N z : =X-Xl V o.O.O.V B ~ :.S G G 5.XXXX9XI.r w e m @X8X}.s H F n F F >.u.H a w a w #XhXa ,.g.C.xXvXd.a u A s J L.L.d.p.u.d.K A s ; O m..X&.K s K A t R ! q.=Xm.*.b.Z.~.qXtX.XqXpXpXiXaXmXS.) ) ",
"k f z ^ 6.! H.jX*.j t R.o.p M p ; 7 s X.G :.I.a.m.l J h.>...P.vXY.y 8.C.L.i.>.>.H w w a $ ,.tX#.u.g.L.yXvXxXJ a F r G I.C C s a >.J ,.K r J 5XjXZ.h.I.p.Q.^.~ 6._.b.m.eXxX_.q.[ q.-X~.~.`.&Xq.(.*X>XaXMX",
"Y N z R t.<.eXn.*.t.Q n.y.o.:.r.G.[.{.G.f.G @ o &.U.7X-.a |.P.tX).=.H u.#.a C  .H H a $ =.I...5 $.i.fXyX XA i n a u h.s $ a r F #.#. .a h.vXtXXXs A H J S U.pXeXa.R S g f.~.b.^.1X.Xm.] b I / [ B.} MXbX",
"k 0 k Y k H.v.z d j S m.4.B -X9Xr.,.G 7 :.J + 7 f.tX1X# y }.>.L.$.y y #.C C E.E.u.u.h.=.F 5 i s 6 F.yXi.D.n H n n K I.# s y u ` =.>.F r Q.xX5XtXJ K A A s u W.Z.; ; j t :.*.~ l b ~.:XZ.A.b.b 2.1.2XuX0X",
"M.k d d c.=XR j *.*.Q ^.8 z t.p 7 7 7 @ :.8Xf.^..X:.oXK u.|.|.L.9.8.oXu.d.E.L.;.s 5 Y.u.% a r C a Z >.i.].n w n r h.p.s s y r &.H u.n &.I.J s 8XZ.A H l v S 0.v t l t G a.l ~ u l g Z._.^.pXb.z A.pX^ { ",
"c./.k c.v.6.o.<.H.=Xm.H.8 *.Q 8 j p p  .D.:.r.eX8Xs I.A &.H ..g.H 8.g.}.D.H H C C $ h.C.a $ s n a c >.#.e.Q.>.#.,. .r # u y F =.s >.}.Q.K s # XXW.A H s u ~ 5.s t t l :.S G S v l u b `.tX6XiXsXpX`.<.R ",
"q 7.c.N Y ! v.H.: t.pX4.l -XX.. B :.F R.G @ 6 p W.&.M s 5 i i C ` a a F a 5 i n y y yXyXH o y a m e w a g.lXrX5XI.u # r A &.;.C s C oXlX=.F h.rX~ s A t s ,.' 3 t l G ~ l S D S g t t a.zX1XkXvXiX~.A.M.",
"k ! E q d k R 4.j S <.S t.a.a.8 7 B 4.G.9 i i i G r.G s r w + n ,.A &.A $ w 5 y $ j.lX).u.C 2 a c ` u.g.,.C s # &.8XI.d.Q.d.,.#.a a y g.#XlXxX&.r l t l S *.s l A M ~ G l s ~ ~ g b l ~.Z.q.v.`.;Xb.3.A.",
"L Y k k 0 q N n.j : Q Q o.S :.p 8 = 5.w.p i i 9 V d.h.;.# w i C g.J Q. .+ 5 w $ s oX8X8.oXoXg.L.Y.C.>.C 2 r # ; # s XXh.r n C Q.>.C F a s 7Xp.# t O l l G -.A A A ~ l t t v S ~ ~ ] a.a.5.2.v.`.*X3.h / ",
"L f q k 0 0 0 t.Q Q *.l 5.S o.G : 8 *.G p i 9 i p.r.G D...F  .>.I.F &.w.&.$ w a u.u.8XE.yXOXL.oX#Xc $ 2 y $ o # l H >.XXj.u H >.OXg.a y &.7XH # ; ; t f.a.:.~ D J S t u s l S 5.2.q.~ g W ] !./.(./ R R ",
"T q 0 q Y Y j Q o.Q l Q 5.:.&.*.= d :.:.p s 7 F ,.&. .F I.;.n C w.H J C #.#.+ H g.8.OX}.8XL.H |.}.J r u x #.m.^.a.K K K 9XW.=.8.j.}.).Y.).L.oXh.~ ] ] b._.D ~ a.S ; u u g ~ U.U.W l S S S ] 2.:X1X^ R ^ ",
"f - & & q k j V Q p S :.:.p ,.X.*.R ^ G # # 7 n J d.,.J  .Q...C u.g.#.#.a #.H C E.=.Y.yX#X9.#.XX Xr s r H rXT.W.Z.x y x W.8X=.K K J #.g.OXW.W.Q.*.t t t :.W.s.J Z.~ v ~ a.^.b.t t l g t j / <.A.nX!.z <.",
"< < - & & = 8 l Q y.B ,.X.p r.~ kXkX=X*.t r s 5 J h.&.h.J =.#.$ H #.C >.$.H #.oXoXa =.oXtX>.C C.g.s t t r h.XXs.1XjX8XOXT.0.Y.=.x x y y s s.0.t t *./.U.b.T.1Xh.0.~.`.`.b.' g S z z j z d R `.kXnX0X1.( ",
"> - 1 - - - 8 t j Q o.&.M G o.S :XkXM.m.l r r s A p.~ -.&.&.J L.L.c C C #.9.>.C K ` L.tXlXh.J w y =.# t r o -.^.' 7XtXD v ' 8.Y.=.y y y s K oXtXtX6X*.= t 3 s s.T.6X_.D g l l b S S g t g ] kX2X(.uXuX(.",
"< 1 q & - - = j 8 t N :.p V r.:.a.6X*.p.,.n # # A  X,.' f.a.Q.).L.E.g.u.tX#XJ y 2 ,.}.}.rX&.a H K ' W.,.j.j.h.&.3 &.OX_ J _ J L.8X_ x s K 0._  XoX2 ; &.:.r r r u &.^.~ l S D ~ ' W b z j M.U.b / v.;XbX",
"+.1 > &   - 0 o.N N t 5.o.@ :..Xf.A M X.].h.w. .8XU.G I.p.s # J >.}.8XhXjXj.u.g.h.Y.8X8XH u =.h.I.h.W.I.g.W. X-.,.W.jXZ.A ;.L.#.).=._ c 8.u $ J K =.L.Y.XX;.7 u r # &.m.~ l S &.] D R z <.M.t S / / ^ &X",
",Xq f T +.! M.Q z j S ^.*.f.O.p 9 G n V d.m #. XwXG f.:.O 5 r # C 9.#.>.Y.>.H a y 2 J 5XJ ,.K # K s # K g.d.Q.W.8Xj..XXX&.8.#.a K Y.tX).C._ y Y.I.j.=.>.h.Q.r t t 3 3 2.*.W ~ 2.0./ z / /.] b b b *.q.Z.",
"N.c.c.B.K.+.t.8 = H.;Xt.Q ^.m.7 V p F V ..i.6 d.w.j.].r r # r $ H >.C C H ` e x x s r K  X,.r y K s # r s Q.&.r ;.0.Z.-XH s x J C.8XrXtXC.j.OXtXW.8._ ,.-. Xr u t 3 t ] 2.W 2.2.b.3.B.2X(.z I R R / 3.q.",
"c.T - k - 7.t.= U.9XS g a.5..XM 9 p ;.d.F ]. . .C Q.p.s i 5 5 $ H H a H H =.H C K ` A x 5XH o r s a i $ w ,.;.t J h.0.-.0.Q. X XY.5XjX8XW._.1XrXXX,.-.&.-.T.' = t 3 u b *.W 2.z.b.qX:Xz.( I I 1.>X( N.%X",
"+.q T c.N.o.!.R.5.N g p X.t.gXR.@ r F g.e.;.D.;.F W.A u r A i H $.y e C >.=.K J K K r K tX_ $ r C 2 s y w Q.>.r K ~ T.XXh.;.K K x x J I.tXoX7XtX7Xh.' ' ' a.W.v ; u b s.1X~.{ { 2XbX&Xb.*XV.(.>XnXV.%XbX",
") q T Y c.Q H.Q 8 j j g *..XR.6X[.G.+XF  .w.D.C ;.W.A H K s F #.>.C C =.5XoX8.K H J J OXXX&.r 2 y a y a >.u.g.h.a.^.*.3 o # # # 2 y h.W. X XOXtXrX8X' J *.q._.~.] ^.7X1X_.1XqX;XkXnX'.*X'.>XuXiXdX%XiXx.",
"f ) ) k.K.K.Y 0 8 t p t X.J.7 9 XXxXjXwX[.7XQ.,.J ;.H s i i a H u.>.g.hXjX&.K u y ;.h.5XK r p.,.&.C H g.L.#.g.}.tXl ; 3 t ; r r r p.p.A u K s v p.Y.-.&.D s.qXjXsXXX0.8.-.s.iXbXbXkXA.'.&X>XiXbXbXnXx.U ",
"< ) B.P - k z : * 8 V p r.V 6 7 [.gXeXwX5XD.w.oXw.A J A p n s  .=.,.L.oX>.s r w r H r H A r H OXh.=.g.}.g.#.#.8X.Xg ; 3 S ~ @ r u h.s u A s t 3 r _ s.0.-.6XbXtXn.m.T.Z.T._.~.pXaX2X3.Z.1XqXnXbXnXdXB.I ",
"P l.B.< f & Y 8 8 8 j V f.@ 9 9 m.eX[.:.s + 5 ;.8X-.A A s s K &...J w.,.J n i r s A # u H $ =.#.y y #.P.,.>.u.OX7Xa.Z.t s r r r r I.K A s s t u r 3 s s.1XxXpXG *.&.8.h.s.' ~.&X1.I g b { b.kX*Xx.A.iXA.",
"} x.U ( 1.f ^ Y = = 8 y.O.O 7 V :.~ ; @ # s M A  X.Xp.5.l s ;.J J #.,.g.H C r # J r # r A J j.u w s XXQ.H E.u.K W.8XT.; ; t r # ;.g.r K A u s r s u v &..X' g v D J K v v ' b.W 2.2.W W / 3./.I ( L h 0X",
"} U < ) ! f Y Y & 8 j Q O 9 9 O.o.l l r 7 K J X.9X5.~ -.W.,.s A H C H h.n r A ;.A 7 u r -. X_ s #.). X$ e $.W.h.` C.0.u r o r ,.-.s s A s s r u s s D h.~ v t l S K G v ~ 5.S b S q.z.q.~.!.3./ ^ I R E ",
"U P , ( - - Y k & = 8 l * = = o.O.G M s J &.:.p. X&.# # J  XF A s s A A r # n  .7 # # J 5Xp.J -.j.W.x J C H I.h.C.,.,.G &.h.I.J s s K K s t s u u &.p.&.A A g 3 v v v :.5.D v ' -.2.6.3.A.:X1.R R R R z ",
"l.< , , & - - - & & d Q j 8 o.t.~ o.A X.,.J w.;.,.j.s # 5 w.w.w.#.,.,. .;.&.r 7 r 7 &.rXh.K K r J h.,.>.#.H =.W.8X7X0.T.8XrXh.s a H ;.H l A A &.I.j.;.K A s t l G D ' m.W v D ' 2.] ] ^ z 6./ R ! g z R ",
"B.( 1 > & - & - . d ^ ^ <.t.=XQ 7 V G  . .;.W.p.w.h.r r n u.i F C h.w.n H h.;.@ 5 F 5X,.s J C K J Y.>.H _ H C >.cXjX&.K r # =.L.#.=.&.&.K l ;.j.,.J A H G A S J ~ 0.m..X~ b b -.0.[ 1.R I { [ g / z j N ",
"P l.! 1 & & - 8 +.M.0 d N !.n.8 p i M G >.;.w. . .oXn + w.d.Z n #.#.s a n s g. .# ,.G.o # C J -.T.;.r y s K J J 5X5Xv % # # # h.oXJ ~ K G J J v A J &.-.l l G G D b.q.6.2.b b W ' / { E h v.] d R z R N ",
"E f ( ( : = z ! {.j 8 8 8 <.t t p r p G :.p.M J W.:.r 7 G H K J d.s a a i C >.>.# G [.u # u &. X*.# ; r 5 y s K ;.7X' O O r ~ p.5XeX X&.~ ' K J J D s.C.u l t s K T.] / q.] h I b W / E R b.z z R z z b ",
"E k , /.v.R R t.{.Q d 8 t Q 8 t p s s s A r.&.I.:.# # 5.:.s A d.Q.,.H w.i.a #.u.$ J m.t ; # m.-.O t ; # r 5 p l y jXa.b *.,.~ g t :.zX6X*.-.=.K A v I.XXs t G t -.T.{ 3.2.Z.iXA.b g I / / q.b b I z z b ",
"L f - ( Y c.z :X0X7.= 8 j Q 8 j p V t s l J ~ 5.; s p.W.Q.s ;.-.H J >.E.E.u.L.w.A ,.G ; # l I.r r # r s 5 5 p ; J W..X5.s # o ; ; A XX^.:.s K K v D 0.a.v l g b 0XpXk.3.2.kXmXbXqX<., E / M.R L z z z b ",
"1.!.- > L K.(.pXt.o.8 t = *.j N 5.p p t S ,.G r.I.9XW.,.X.h.XX-.J j.;.#.>.}.E.D.oXXXJ ~ A G oXs u t A J i 5 7 M >.K 3Xt o r # # ; s.7XJ I.' u v l u -.2.g t d a.0XvX:X1.v.uXmXmXkXsXA., z /.1.L R R R R ",
"1.uX,XE k.R c.qXkXt.* : 8 Q z M.R.X.5.a.m.5.p S 8X^.r # o &.h. .W.:.s C F ,...h.5X,.&.5.5.l  XW.# A p A C a n M =.H  Xt ; # s s #  XzX8.&.Z.s s v l -.~ t t j 6.z 6.kXB.R 1.dXmX;Xq.0XA.R 6.:X1.L f z L ",
"( x.B.k.P f 0 0 ^ z 7.7.4.S 8 7.Q G ~ a.r.: 7 ; 5.m.s s H Q.F M &.s s u r s s r W.G.t s s # -.Q.r 7 6 r i n V r I.8Xa.O r r # w $ =.lXXXK h.XXh.s.q.T.Z.G t ! R z z 6.gX/.:XnXmXM.> R 6.!.M./.>X0XB.k.1.",
"U ) l.L ) f f h z = j j =X=Xo.N 8 p Q 5.G : ; t ; X.[.r.r.I.oXW.G s p o # @ # # W.W.@ r # O s ^.t # r @ # r i J W.rX,.@ O ; 7 7 r y rX5X0._._.:.l S *.`.9Xm.~ l t *.!.!.1XiX2X1.; t z h b <.3.(.:Xz.M.&X",
"B.( , E ) P h h R d d = H.v.z o.= j S o.j t t t = &.,.# l X.h.,.h.; # # @ @ @ @ p h.~ M t o 5.5.# ; ; @ 5 r G 5.r Q.~ O ; # # # $ J 7Xp.C.-.G ~ v u u D ^._.n.5.XXqX^.z l 6.&XA.W S b I h d I ;X1., z 1.",
"%X< > ( E L 6.h <.( N z !.<.!.;XU.Q t.a.a.Q t j : 5.l ; t G p 7 p.t @ O 7 @ O # t *.t M :.W.m.; = O = ; O s I.t o _.m.O t r ; ; O h.8X,.p.G S ' &.-.5.-.-.~ q.T.Z.D b b b z 2.;X5.b ^ [ I 4 4 N.0XU { k.",
"%X1 < 1.( L ^ h v.^ ^ R 0X{.qX;XpXU.Q j 4.t.g t S a.:.N M G p 7 ~ S O O @ = 7 O M A O 7 5.9Xa.r O . o o # f.S % t .XsX2.t u l t :.XXa.p.:.G s ~ a.p.m.-.v g u ' -.W g z ] v.z.z.b.z.I { k.A.iXuXbX*Xh { ",
",XT 1 l.N.) { h 6.R N z eX<.H.{.*.4.t : <.4.t t.{.7.o.o.B Q j . t *.= = O . . O o.M # t oX&.a.[.~ l N r.8Xa.g U.^.0.kXvXq.u t 2.5Xm.I.U.~ S J a.m.D *.-.S v 3 u ~.b.[ q.Z.z.I , h z.(.1.S.bXmXbXiXaX(.{ ",
"P N.( ,XN.!.1.1.&Xj z d !.o.o.^ Q *.~ 7 Q ^.^.pX2.O : j 8 j G : t Q = O   . . O :.# l W.G A &.a.U.^.6XjX^.5.9XjXf.s.S ;XpXm._.9X6XU.5.a.~ A 5.7XjXI.D S l g b / 0X'.&X;XA.B.!.v.B.A.0XnXdXbXuXaX( B.uXuX",
"< < ,XbXaXL k.6.N.!.z > 6.^ Q 5.S :.Q S 8 j H.4.O 8 d = j 0 N o.O 6.o.z 0 d j m.m.A m.j.t J l O   t :.l A I.&.~ .XS t g ~ f. X.X~ ~ g l ~ J ' f.7X^.0.-.S <.A.1X0XA.6.R z f f I E 6.(.%X2X*Xl.< P L A.>X",
"q ) +.,XbX4X,Xz z N.^ ^ t.<.N o.G S Q Q Q N 7.8 8 8 . 0 8 7.7.7..X-XR O : : j {.U.&.f.&.J r A ; t ,.t @ a p.A U.5Xl b G G J s a.^.a.&.f.&.J &.-._.1Xa.~ ] <.z /.;Xz > - : > : 4 h z &XiX>XP ( h h f ( A.",
"T T < T N.&X1.L h M.v.6.*.^ <.o.l J Q l *.Q 5.: 0 - - d k pXaXc.^.~ : : * . . o..XI.f.j.-.J l t &.s o # J u.r.J C.' S g s o :.f.~ ~ a.l t s J J p.-Xa.d I f h 2X( h d : : d d g z R `.1X`.(.I E h h z R ",
"! q q k & L ( R ( z.M.<.<.o.N <.Q A V V *.Q m.z . = : : 4X!.+./.N l d * . * . =XU.I.&.H ~ 5.a.5.,.t r A  .;.A ; ,.Z.; ; r s I.s # l G G s r H &.J A U.~.2.N.kX0Xh <.R j z z d l b b.Z.b R v.{ E E z z R ",
") q q q < ! k.l.x.l.1.1.3./ N f.4.p j V t.:.o.5.. * * : Q z (.pXS Q o.t j 8 n.pXr.t @ t M G f.p.:.n.m.l ~ D t : ~ I.s p t _.5.O p t ^.] O r s X.D *.R ^.9X-XkX0X:XA.b.v.^ R z z / `.[ h R z 6.h { 3.<.L ",
"1.q - 0 < E N.N.| V.l.I E z 0 J.o.l N 4.o.m.Q 5.z ~ ^ d t *.=Xn.S 5.5.S M M 4.o.~ . 7 O p *.:.:.S f.zXM.5.t d 8 &.I.S G  XI.3 t p A 0Xb o t A &.J D R 6.A v qX[ iXsXA.z.N.N.v.R 3.q.b h h E 1.E f ^ v.{ ",
"1.B.c.7.v.M.,X/.%X<X( P R f 0 N N j :.o.o.:.Q *.H.<.5.4.2.n.S 8 t G N 7 : j t t Q ; O ; ; &.J M M A gXtX' u j t A W.*.U.XXv t g p ~ 1XS t s X.:.' 5.<.f.A :.iX3.3.vXvXpX0X/.&XB.A.{ b h / E ^ E L f ^ <.",
"U B.(.K.N.+.:XkXbXnXl.f / j = t 8 o.4.o.S o.m.6.M.<.R o.*.Q * 8 7 B o.7 t Q . : B 7 ; @ G X.7 s G p H.zX&.t j M G W.XX{.r.~ ~ M p r.:Xb t p j ; u ,.4.o.l J 2X;X{ ~.6X/.v.6.<.=X1Xq.I R E ^ E R ^ f Y <.",
"x.) Y <.<.0 ! +.*XbX&XE =X(.N t N Q t.n.N o.Q o.v.0X!.j 7.*.= 8 : 7 O.B Q 8 = Q a.G j Q N t 8 r M A *.tXI.s l S s W.rX&.G &.G s r :.=Xz g A p t t ' 5.d &.' kXvXq.~ z z z d j d N.=X:X{ <.f L Y E R L <.",
"( ) T ! R q ! +.( 0XM.&X0X6.o.z 8 O.Q 4.4.z j S M.eX(.t..X^ N O = p l N o.  Q 4.G.f.j :.: . 7 t i n M XXa.G N :.:.wXW.@ p t A G A ,.!.z g t j j = 5.n.6.U.tX2XdX6.j Q ^ z 0 = : : 6.kXaXA./ L k ^ 1.R 7.",
") ) L z ! k 0 N ( (.v.:Xv.z M.j * o.Q = 8 p 8 8 8 4.4.n.-Xv.* : O t 8 5.a.t Q Q N 7 S G p = 8 r p s J -XG l N m.,. X~ 7 s l l l G 5.6.z t s S 8 t ^.U.Z._.(.{ 4 z z o.N 8 0 d 8 > j v.2X0Xf ) E h 6.v.M.",
"E L P k Y z 8 j Y B.N.( R v.!.: : j t.8 8 8 j : = 7.Q j *.eXR t N f.U.{.l Q Q 8 = O l l o.8 O ; r r ,..X:.t z m.g ,.t t 7 g *.~ 5.4.t.a.~ *.S Q ^.n.5.*.d 6.1.> j S o.z 0 : : z z b <.1.iXz.4 ) h k.N.^ ",
"P f f L k R 8 8 j 7.M.( /.B.{ : = 8 Q Q j 8 8 = 4.o.* 8 8 t.m.5.o.=XeX^.*.n.: . = . = j j l t o o A ,.*.*.t I 6.~ S 8 t G 5.*.*.~ l R 4.~ ~ U.U.t.~ 5.. > N.A.b z ^ ^ z 4 > : 3 R z { z.&X*X( P 4 A.1.L ",
"f P P ^ z ! d 8 k c.M.(.A.{ 2.> : = Y N - j : N n.j 8 : j 4.^ 8 j ;XR ! 4.l . . . O : t ; g S ~ ,.5.S W b.q.!.B.b l =Xn.Q t > * = O : d t G a.R j j 5..XaXbX0XI / v.6.I E h 4 z : g b.M.(.*X*XA.4 k.( / ",
"q L P 6.z o.z 8 0 (.!.!.I z v.> 8 * N N & j = 7.M.. t * l 4.^ * M.!.R ^ R R = = : : 8 l o.m.U.W.7XqXb.b.1X&XkXaX/ /.3.* : O > > * : 8 8 z q.!.z N ~ h.kXbXbXuX(.<.d { 6.R ^ z.<.b R A.q.N.A.dX2X%Xx.P I "
};
